<?xml version="1.0" encoding="UTF-8" standalone="no"?>
<!DOCTYPE svg PUBLIC "-//W3C//DTD SVG 1.0//EN" "http://www.w3.org/TR/2001/PR-SVG-20010719/DTD/svg10.dtd">
<svg width="24cm" height="19cm" viewBox="217 57 465 365" xmlns="http://www.w3.org/2000/svg" xmlns:xlink="http://www.w3.org/1999/xlink">
  <g>
    <rect style="fill: #ffffff" x="340" y="360" width="220" height="60"/>
    <rect style="fill: none; fill-opacity:0; stroke-width: 4; stroke: #bfbfbf" x="340" y="360" width="220" height="60"/>
    <text font-size="12.8" style="fill: #000000;text-anchor:middle;font-family:sans-serif;font-style:normal;font-weight:normal" x="450" y="385.9">
      <tspan x="450" y="385.9">Operating</tspan>
      <tspan x="450" y="401.9">System</tspan>
    </text>
  </g>
  <g>
    <rect style="fill: #ffffff" x="360" y="300" width="180" height="60"/>
    <rect style="fill: none; fill-opacity:0; stroke-width: 4; stroke: #bfbfbf" x="360" y="300" width="180" height="60"/>
    <text font-size="14.1111" style="fill: #000000;text-anchor:middle;font-family:sans-serif;font-style:normal;font-weight:normal" x="450" y="334.281">
      <tspan x="450" y="334.281">libhdf5</tspan>
    </text>
  </g>
  <g>
    <rect style="fill: #ffffff" x="420" y="60" width="120" height="120"/>
    <rect style="fill: none; fill-opacity:0; stroke-width: 4; stroke: #bfbfbf" x="420" y="60" width="120" height="120"/>
    <text font-size="14.1111" style="fill: #000000;text-anchor:middle;font-family:sans-serif;font-style:normal;font-weight:normal" x="480" y="89.0028">
      <tspan x="480" y="89.0028">User</tspan>
      <tspan x="480" y="106.642">Applications</tspan>
      <tspan x="480" y="124.281"></tspan>
      <tspan x="480" y="141.919"></tspan>
      <tspan x="480" y="159.558"></tspan>
    </text>
  </g>
  <g>
    <rect style="fill: #ffffff" x="360" y="180" width="180" height="120"/>
    <rect style="fill: none; fill-opacity:0; stroke-width: 4; stroke: #000000" x="360" y="180" width="180" height="120"/>
    <text font-size="14.1111" style="fill: #000000;text-anchor:middle;font-family:sans-serif;font-style:normal;font-weight:normal" x="450" y="209.003">
      <tspan x="450" y="209.003">Data product</tspan>
      <tspan x="450" y="226.642">specification impl.</tspan>
      <tspan x="450" y="244.281"></tspan>
      <tspan x="450" y="261.919">HDF5/C</tspan>
      <tspan x="450" y="279.558">Abstraction</tspan>
    </text>
  </g>
  <line style="fill: none; fill-opacity:0; stroke-width: 4; stroke-dasharray: 8; stroke: #000000" x1="340" y1="300" x2="220" y2="300"/>
  <line style="fill: none; fill-opacity:0; stroke-width: 4; stroke-dasharray: 8; stroke: #000000" x1="340" y1="180" x2="220" y2="180"/>
  <line style="fill: none; fill-opacity:0; stroke-width: 4; stroke-dasharray: 8; stroke: #000000" x1="340" y1="120" x2="220" y2="120"/>
  <text font-size="14.1111" style="fill: #000000;text-anchor:start;font-family:sans-serif;font-style:normal;font-weight:700" x="250" y="270">
    <tspan x="250" y="270">Layer 1a</tspan>
  </text>
  <text font-size="14.1111" style="fill: #000000;text-anchor:start;font-family:sans-serif;font-style:normal;font-weight:700" x="250" y="220">
    <tspan x="250" y="220">Layer 1b</tspan>
  </text>
  <text font-size="14.1111" style="fill: #000000;text-anchor:start;font-family:sans-serif;font-style:normal;font-weight:700" x="250" y="155">
    <tspan x="250" y="155">Layer 2</tspan>
  </text>
  <text font-size="14.1111" style="fill: #000000;text-anchor:start;font-family:sans-serif;font-style:normal;font-weight:normal" x="250" y="335">
    <tspan x="250" y="335">Layer 0</tspan>
  </text>
  <text font-size="14.1111" style="fill: #000000;text-anchor:start;font-family:sans-serif;font-style:normal;font-weight:700" x="250" y="90">
    <tspan x="250" y="90">Layer N+1</tspan>
  </text>
  <line style="fill: none; fill-opacity:0; stroke-width: 4; stroke-dasharray: 8; stroke: #000000" x1="560" y1="60" x2="680" y2="60"/>
  <line style="fill: none; fill-opacity:0; stroke-width: 4; stroke-dasharray: 8; stroke: #000000" x1="560" y1="300" x2="680" y2="300"/>
  <text font-size="14.1111" style="fill: #000000;text-anchor:start;font-family:sans-serif;font-style:normal;font-weight:700" x="590" y="190">
    <tspan x="590" y="190">DAL2</tspan>
  </text>
  <g>
    <rect style="fill: #ffffff" x="360" y="120" width="119.5" height="60"/>
    <rect style="fill: none; fill-opacity:0; stroke-width: 4; stroke: #000000" x="360" y="120" width="119.5" height="60"/>
    <text font-size="14.1111" style="fill: #000000;text-anchor:middle;font-family:sans-serif;font-style:normal;font-weight:normal" x="419.75" y="145.461">
      <tspan x="419.75" y="145.461">Tuple get/set,</tspan>
      <tspan x="419.75" y="163.1">Slicing, ???</tspan>
    </text>
  </g>
  <line style="fill: none; fill-opacity:0; stroke-width: 4; stroke-dasharray: 20; stroke: #000000" x1="540" y1="240" x2="360" y2="240"/>
  <g>
    <rect style="fill: #ffffff" x="360" y="60" width="61.1" height="60"/>
    <rect style="fill: none; fill-opacity:0; stroke-width: 4; stroke: #000000" x="360" y="60" width="61.1" height="60"/>
    <text font-size="14.1111" style="fill: #000000;text-anchor:middle;font-family:sans-serif;font-style:normal;font-weight:normal" x="390.55" y="85.4611">
      <tspan x="390.55" y="85.4611">DAL2</tspan>
      <tspan x="390.55" y="103.1">Tools</tspan>
    </text>
  </g>
</svg>
